<?xml version="1.0" encoding="UTF-8"?>
<svg xmlns="http://www.w3.org/2000/svg" version="1.1" viewBox="9 25 982 151" fill="currentColor">
  <g>
    <polygon points="571.37 60.05 545.27 60.05 540.31 73.68 553.36 109.53 571.37 60.05"/>
    <polygon points="524.5 59.78 498.41 59.78 521.89 124.3 514.14 145.6 39.94 145.6 31.01 170.12 531.26 170.12 531.31 170.12 547.98 124.3 524.5 59.78"/>
    <path d="M438.71,59.77c-5.82,0-11.63,2.15-15.92,7.73v-6.23h-23v67.46h23.08v-32.77c0-10.51,5.33-14.89,12.97-14.89,3.52,0,6.24.81,10.01,3.22v-23.45c-2.44-.72-4.89-1.08-7.15-1.08Z"/>
    <path d="M476.93,67.51v-6.23h-23v67.46h23.08v-32.77c0-10.51,5.33-14.89,12.97-14.89,2.76,0,5.04.51,7.71,1.89l-8.34-22.92c-4.6.73-9,2.99-12.42,7.46Z"/>
    <polygon points="106.83 128.83 89.73 81.87 72.61 128.83 72.61 128.83 72.61 128.83 72.61 128.83 50.12 128.83 50.12 128.83 50.11 128.83 50.11 128.83 50.11 128.83 15.32 33.24 15.32 33.24 15.33 33.24 41.78 33.24 41.78 33.24 61.35 89.54 81.33 33.24 98.14 33.24 118.12 89.54 137.68 33.24 137.69 33.24 164.14 33.24 164.15 33.24 164.15 33.24 129.35 128.83 129.35 128.83 129.35 128.83 106.83 128.83"/>
    <path d="M369.61,61.29v5.64c-5.15-4.42-11.65-7.14-19.08-7.14-18.65,0-33.77,15.77-33.77,35.23s15.12,35.23,33.77,35.23c7.43,0,13.93-3.14,19.08-7.89v6.49h22.11V61.29h-22.11ZM353.98,108.71c-7.56,0-13.69-6.13-13.69-13.69s6.13-13.69,13.69-13.69,13.69,6.13,13.69,13.69-6.13,13.69-13.69,13.69Z"/>
    <path d="M210.07,104.97c-6.35,4.5-12.8,5.99-19.17,5.8-7.25-.21-14.44-4.77-14.44-9.16h48.92c4.12-27.58-17.28-41.84-35.79-41.84-20.29,0-36.73,15.77-36.73,35.23s15.81,35.23,38.12,35.23c15.3,0,25.22-5.07,31.41-12.19l-12.32-13.07ZM189.59,78.54c9.11,0,13.13,5.46,13.13,8.43h-26.26c0-2.86,4.02-8.43,13.13-8.43Z"/>
    <path d="M304.75,97.15c-4.79,5.71-12.05,9.36-20.19,9.36-14.46,0-26.18-11.49-26.18-25.66s11.72-25.66,26.18-25.66c6.43,0,12.29,2.31,16.85,6.09l16.11-18.71c-8.9-7.37-20.4-11.83-32.96-11.83-28.24,0-51.13,22.44-51.13,50.11s22.89,50.11,51.13,50.11c11.92,0,22.88-4.01,31.57-10.71-6.02-5.76-9.9-15.51-11.38-23.11h0Z"/>
  </g>
  <g>
    <path d="M658.4,100.14v9.48c-4.23,1.78-10.99,2.67-20.25,2.67h-.64v17.95h-9.94v-17.95h-18.13v-9.48h28.81c9.39,0,16.11-.89,20.16-2.67ZM622.18,94.94c-3.04-1.56-5.42-3.74-7.13-6.54-1.72-2.79-2.58-5.97-2.58-9.53s.86-6.73,2.58-9.53c1.72-2.79,4.1-4.97,7.13-6.54,3.04-1.56,6.52-2.35,10.45-2.35s7.32.78,10.36,2.35c3.04,1.57,5.42,3.74,7.13,6.54,1.72,2.79,2.58,5.97,2.58,9.53s-.86,6.74-2.58,9.53c-1.72,2.79-4.1,4.97-7.13,6.54s-6.49,2.35-10.36,2.35-7.41-.78-10.45-2.35ZM624.94,71.83c-1.93,1.87-2.9,4.22-2.9,7.04s.97,5.17,2.9,7.04c1.93,1.87,4.49,2.81,7.69,2.81s5.68-.93,7.64-2.81c1.96-1.87,2.95-4.22,2.95-7.04s-.98-5.17-2.95-7.04c-1.96-1.87-4.51-2.81-7.64-2.81s-5.75.94-7.69,2.81ZM673.31,130.24h-9.94V59.54h9.94v70.69Z"/>
    <path d="M712.47,61.75v24.02c0,8.35-1.23,15.54-3.68,21.58-2.46,6.04-5.88,10.68-10.26,13.9-4.39,3.22-9.47,4.89-15.23,5.02v-9.48c5.21-.25,9.43-2.16,12.66-5.75s5.35-8.51,6.4-14.77h-19.05v-9.3h19.79v-15.92h-19.79v-9.3h29.18ZM747.45,130.24h-9.39v-33.32h-9.11v32.12h-9.3V59.91h9.3v27.15h9.11v-27.52h9.39v70.69Z"/>
    <path d="M767.93,98.39v18.59h17.67c3.13,0,6.27-.32,9.43-.97,3.16-.64,5.81-1.46,7.96-2.44v9.39c-2.03,1.1-4.65,1.95-7.87,2.53s-6.52.87-9.89.87h-27.34v-37.37h28.44v-17.76h-28.53v-9.48h38.38v36.63h-28.26ZM808.15,130.24V59.54h9.94v70.69h-9.94Z"/>
    <path d="M912.16,103.73h-28.72v11.14h-10.03v-11.14h-28.72v-8.74h67.47v8.74ZM856.7,86.05c-5.62-2.64-8.42-6.5-8.42-11.6s2.81-9.05,8.42-11.69c5.61-2.64,12.87-3.96,21.77-3.96s16.15,1.32,21.77,3.96c5.61,2.64,8.42,6.54,8.42,11.69s-2.81,8.96-8.42,11.6c-5.62,2.64-12.87,3.96-21.77,3.96s-16.15-1.32-21.77-3.96ZM908.85,120.94v8.74h-59.74v-20.34h10.12v11.6h49.61ZM864.3,68.98c-3.68,1.32-5.52,3.15-5.52,5.48s1.84,4.13,5.52,5.38c3.68,1.26,8.41,1.89,14.17,1.89s10.48-.63,14.13-1.89c3.65-1.26,5.48-3.05,5.48-5.38s-1.83-4.16-5.48-5.48c-3.65-1.32-8.36-1.98-14.13-1.98s-10.49.66-14.17,1.98Z"/>
    <path d="M984.64,99.68h-67.47v-8.28h28.81v-9.66h9.94v9.66h28.72v8.28ZM936.73,82.79c-5.55,2.24-11.31,3.42-17.26,3.54v-8.65c4.36-.18,8.64-1.13,12.84-2.85,4.2-1.72,7.78-4.06,10.72-7.04,2.95-2.98,4.79-6.33,5.52-10.08l10.03,1.84c-.55,2.64-1.47,5.09-2.76,7.36l27.43,11.6-3.59,8.01-28.99-12.7c-3.74,3.74-8.39,6.74-13.95,8.97ZM972.86,107.27c5.46,2.12,8.19,5.51,8.19,10.17s-2.73,8.05-8.19,10.17c-5.46,2.12-12.76,3.18-21.91,3.18s-16.45-1.06-21.91-3.18c-5.46-2.12-8.19-5.51-8.19-10.17s2.71-8.05,8.15-10.17,12.75-3.18,21.95-3.18,16.44,1.06,21.91,3.18ZM965.04,121.49c3.62-.86,5.43-2.21,5.43-4.05s-1.81-3.19-5.43-4.05c-3.62-.86-8.32-1.29-14.08-1.29s-10.48.43-14.13,1.29c-3.65.86-5.48,2.21-5.48,4.05s1.82,3.19,5.48,4.05c3.65.86,8.36,1.29,14.13,1.29s10.46-.43,14.08-1.29Z"/>
  </g>
</svg>